<?xml version="1.0" encoding="UTF-8"?><svg xmlns="http://www.w3.org/2000/svg" viewBox="0 0 10 10"><defs><style>.e{fill:#fff;}.f{fill:#e7002d;}</style></defs><g id="c"><rect y="1" width="10" height="1.5"/><rect y="7.5" width="10" height="1.5"/><rect class="e" x="4.62" y="1.25" width=".75" height="1" rx=".25" ry=".25"/><rect class="e" x="3.12" y="1.25" width=".75" height="1" rx=".25" ry=".25"/><rect class="e" x="1.62" y="1.25" width=".75" height="1" rx=".25" ry=".25"/><rect class="e" x="6.12" y="1.25" width=".75" height="1" rx=".25" ry=".25"/><rect class="e" x="7.62" y="1.25" width=".75" height="1" rx=".25" ry=".25"/><rect class="e" x="9.12" y="1.25" width=".75" height="1" rx=".25" ry=".25"/><rect class="e" x=".12" y="1.25" width=".75" height="1" rx=".25" ry=".25"/><rect class="e" x="0" y="2.5" width="10" height="5"/><rect x="1" y="2.5" width=".5" height="5"/><rect x="8.5" y="2.5" width=".5" height="5"/><rect class="e" x="4.62" y="7.75" width=".75" height="1" rx=".25" ry=".25"/><rect class="e" x="3.12" y="7.75" width=".75" height="1" rx=".25" ry=".25"/><rect class="e" x="1.62" y="7.75" width=".75" height="1" rx=".25" ry=".25"/><rect class="e" x="6.12" y="7.75" width=".75" height="1" rx=".25" ry=".25"/><rect class="e" x="7.62" y="7.75" width=".75" height="1" rx=".25" ry=".25"/><rect class="e" x="9.12" y="7.75" width=".75" height="1" rx=".25" ry=".25"/><rect class="e" x=".12" y="7.75" width=".75" height="1" rx=".25" ry=".25"/></g><g id="d"><path class="f" d="M7.12,4.79l-2.12,2.12-2.12-2.12c-.39-.39-.39-1.02,0-1.41h0c.39-.39,1.02-.39,1.41,0l.71,.71,.71-.71c.39-.39,1.02-.39,1.41,0h0c.39,.39,.39,1.02,0,1.41Z"/></g></svg>